PathFileType	3	(X/Y/Z)	RCH0000002 BBF 09.c3d
DataRate	CameraRate	NumFrames	NumMarkers	Units	OrigDataRate	OrigDataStartFrame	OrigNumFrames
100.0	100.0	14	23	mm	100.0	334	352
Frame#	Time	T2			T10			MAN			LASI			RASI			LPSI			RPSI			LPAT			LKNE			LANK			LMED			LHEE			LTOE			RPAT			RKNE			RANK			RMED			RHEE			RTOE			RTHI			LTHI			RTIB			LTIB			
		X1	Y1	Z1	X2	Y2	Z2	X3	Y3	Z3	X4	Y4	Z4	X5	Y5	Z5	X6	Y6	Z6	X7	Y7	Z7	X8	Y8	Z8	X9	Y9	Z9	X10	Y10	Z10	X11	Y11	Z11	X12	Y12	Z12	X13	Y13	Z13	X14	Y14	Z14	X15	Y15	Z15	X16	Y16	Z16	X17	Y17	Z17	X18	Y18	Z18	X19	Y19	Z19	X20	Y20	Z20	X21	Y21	Z21	X22	Y22	Z22	X23	Y23	Z23	

334	3.330	309.11344	54.43752	981.98977	314.20364	36.06606	788.93784	436.08301	74.77233	938.73130	382.98961	145.00429	646.93243	430.69534	-26.20068	638.48287	292.25056	60.13231	697.56866	309.04503	-7.42088	690.13352	337.66297	104.62423	368.38044	281.91058	160.02569	341.23020	178.06717	157.77035	81.50605	186.41150	89.70046	102.18970	146.10667	118.62041	121.88834	227.61899	122.13380	69.96884	552.91818	29.59162	418.00536	519.23956	-23.15198	369.29518	441.39217	-45.49706	115.65251	423.82050	21.11639	125.10216	396.96099	-20.43945	153.10765	476.56689	-3.74627	96.03338	487.25783	-99.52546	471.92554	299.22934	227.24568	466.46515	495.63347	-98.02775	267.51811	232.64169	223.68502	231.24963	
335	3.340	319.60623	53.06686	980.85604	323.66856	35.98320	787.67504	446.65835	73.00397	937.25951	392.37454	145.34467	645.69750	440.09029	-25.97022	637.02208	301.62154	60.34851	696.02568	318.33660	-7.20722	688.49059	344.57917	104.90294	366.47625	288.36031	160.29866	340.16241	179.49658	158.39516	82.63556	187.77150	90.29761	103.30473	148.19937	119.45972	123.77624	228.38185	122.38553	70.09052	561.54947	32.15657	416.97980	529.06132	-20.93224	367.88026	458.59567	-43.71046	111.39022	439.17950	22.34695	120.90502	412.53137	-19.89744	147.93171	493.20565	-1.01301	93.02782	497.34243	-97.74739	470.24499	307.30656	227.55278	465.22251	509.97957	-95.87572	264.60070	237.41670	224.09498	231.04622	
336	3.350	330.20512	51.53220	979.51766	333.49604	35.96583	786.23795	457.38428	71.16643	935.77804	402.03924	145.68489	644.18856	449.79981	-25.71765	635.51534	311.29097	60.63030	694.32695	327.97050	-6.94075	686.84879	352.68531	105.12090	364.22045	295.94061	160.42175	338.70293	181.30870	158.93215	84.07047	189.57776	90.78209	104.61231	150.86627	120.16400	126.01224	229.40513	122.56180	70.32407	569.67900	34.98208	415.04536	538.29819	-18.62777	365.78954	473.80362	-42.27249	107.06980	452.52170	23.21311	116.69484	426.29816	-19.72546	142.87640	507.75299	1.39725	89.87800	507.46339	-95.80367	468.09666	316.07354	227.72765	463.62784	523.26092	-93.76214	261.34375	243.07253	224.35924	230.77463	
337	3.360	340.87706	49.85956	977.98268	343.67383	36.02365	784.63507	468.22890	69.29229	934.29541	411.94618	146.00552	642.39204	459.81816	-25.44897	633.99523	321.23444	60.96047	692.48402	337.93641	-6.63614	685.24254	362.13280	105.28634	361.59326	304.79112	160.38800	336.81600	183.62873	159.34664	85.88131	191.98693	91.12156	106.14456	154.26568	120.67633	128.64750	230.81895	122.66095	70.71614	577.38951	37.99583	412.31340	547.01651	-16.29094	363.11587	486.80548	-41.21142	102.84509	463.73033	23.71496	112.62733	438.11007	-19.89430	138.13185	520.04998	3.41677	86.70694	517.62807	-93.74610	465.55452	325.56537	227.74596	461.67023	535.35922	-91.72856	257.87031	249.72946	224.45613	230.45555	
338	3.370	351.58817	48.08531	976.27189	354.17721	36.16377	782.88793	479.15730	67.42025	932.82465	422.05435	146.27959	640.30948	470.12723	-25.17991	632.50327	331.41959	61.31671	690.52130	348.21234	-6.31284	683.71375	373.03115	105.41420	358.60585	315.01477	160.20223	334.49563	186.60077	159.60696	88.13124	195.17415	91.28899	107.92707	158.56564	120.94339	131.71686	232.78037	122.68934	71.31570	584.75529	41.09412	408.93909	555.27533	-13.99074	359.98498	497.50041	-40.53706	98.86310	472.78651	23.86815	108.85237	447.90974	-20.36337	133.86851	530.04056	4.99882	83.63794	527.81996	-91.64955	462.71152	335.79972	227.58842	459.36583	546.19724	-89.82473	254.30629	257.48668	224.37225	230.12620	
339	3.380	362.30481	46.25520	974.41967	364.96963	36.38966	781.03179	490.13254	65.59348	931.38450	432.32282	146.47390	637.96076	480.69732	-24.93572	631.08879	341.80851	61.67219	688.47691	358.76574	-5.99449	682.31042	385.43528	105.52688	355.30790	326.66677	159.88325	331.77330	190.38305	159.68827	90.86686	199.32631	91.26654	109.97387	163.93456	120.92074	135.23017	235.47055	122.66275	72.16992	591.83700	44.14675	405.10884	563.12232	-11.81118	356.54619	505.91382	-40.24037	95.24922	479.77557	23.70079	105.50038	455.74491	-21.08801	130.22032	537.78173	6.12285	80.78263	538.00149	-89.60882	459.67527	346.77482	227.24412	456.76220	555.75304	-88.10687	250.76862	266.41301	224.10547	229.84151	
340	3.390	372.99467	44.42240	972.47387	376.00412	36.69990	779.11513	501.11688	63.85744	930.00017	442.71434	146.55111	635.38620	491.48870	-24.75000	629.80673	352.36050	61.99663	686.40228	369.55539	-5.70802	681.08414	399.33761	105.65372	351.79208	339.74789	159.46417	328.72261	195.14093	159.57549	94.10914	204.63326	91.04829	112.28260	170.53064	120.57714	139.16521	239.08910	122.60654	73.31934	598.67869	47.00558	401.02419	570.59150	-9.84753	352.96061	512.19684	-40.29519	92.09581	484.88107	23.24954	102.67107	461.76559	-22.02566	127.27269	543.43998	6.79591	78.23081	548.11865	-87.73244	456.56194	358.46877	226.71319	453.94003	564.06559	-86.63429	247.35605	276.54005	223.66642	229.67327	
341	3.400	383.62784	42.64473	970.49449	387.22571	37.08715	777.19781	512.07297	62.25728	928.70342	453.19837	146.47261	632.64707	502.45386	-24.66263	628.71458	363.03503	62.25772	684.36045	380.53382	-5.48241	680.08698	414.66667	105.82909	348.19416	354.20338	158.99054	325.45954	201.03870	159.26492	97.84578	211.27803	90.64164	114.83085	178.49176	119.89753	143.46342	243.84593	122.55403	74.79287	605.30728	49.51603	396.88399	577.70255	-8.20046	349.38820	516.60824	-40.66179	89.45563	488.36657	22.55556	100.42586	466.20700	-23.14008	125.05705	547.27422	7.05016	76.04351	558.10649	-86.13403	453.48870	370.84032	226.00830	451.01167	571.23004	-85.46514	244.14337	287.85959	223.07818	229.70658	
342	3.410	394.17785	40.98104	968.55120	398.57439	37.53748	775.34814	522.96522	60.83492	927.53189	463.75325	146.20172	629.82422	513.54018	-24.71694	627.86874	373.79439	62.42299	682.42298	391.64995	-5.34707	679.36793	431.29291	106.08927	344.68783	369.92797	158.51634	322.13783	208.23088	158.76432	102.02659	219.42667	90.06691	117.57475	187.92720	118.88441	148.02997	249.95089	122.54323	76.60315	611.73406	51.53037	392.86735	584.46146	-6.96831	345.97526	519.48226	-41.29155	87.34091	490.54805	21.66084	98.78517	469.36126	-24.40277	123.55237	549.60773	6.93746	74.25012	567.89446	-84.92228	450.56543	383.83119	225.15464	448.11598	577.38362	-84.65178	241.17942	300.32615	222.37428	230.03321	
343	3.420	404.62268	39.48724	966.71992	409.98844	38.03041	773.63892	533.76114	59.62623	926.52763	474.36725	145.70711	627.01455	524.69277	-24.95633	627.32073	384.60577	62.46208	680.66571	402.85173	-5.32990	678.96939	449.04097	106.46847	341.47424	386.77662	158.09823	318.93930	216.85448	158.09176	106.56298	229.21900	89.35528	120.45032	198.91228	117.55771	152.73859	257.60219	122.61221	78.74322	617.95759	52.92119	389.11985	590.86216	-6.23847	342.84395	521.18838	-42.13153	85.72760	491.76143	20.60601	97.73049	471.54302	-25.79150	122.69298	550.79424	6.52238	72.84981	577.41114	-84.19084	447.88650	397.36995	224.18806	445.40978	582.68510	-84.23618	238.48850	313.86487	221.59496	230.74236	
344	3.430	414.94555	38.21214	965.07861	421.40781	38.53963	772.14290	544.43264	58.65845	925.73490	485.03850	144.96583	624.32568	535.85719	-25.42074	627.11374	395.44259	62.34935	679.16376	414.08857	-5.45508	678.92401	467.70665	106.99462	338.76725	404.57940	157.78881	316.06028	227.02279	157.27366	111.33229	240.76082	88.54563	123.37797	211.48647	115.95342	157.44119	266.97469	122.79392	81.18513	623.96693	53.59369	385.74500	596.88892	-6.07841	340.08514	522.09056	-43.12800	84.56374	492.33057	19.42957	97.21067	473.05554	-27.28657	122.38094	551.18353	5.87526	71.81635	586.58795	-84.00937	445.52411	411.37722	223.15171	443.05617	587.29272	-84.24582	236.07474	328.38332	220.78261	231.90964	
345	3.440	425.13574	37.19378	963.70263	432.77708	39.03464	770.92799	554.95727	57.94812	925.19725	495.77384	143.96569	621.86900	546.98177	-26.14319	627.27976	406.28490	62.06663	677.98599	425.31319	-5.74061	679.25222	487.07593	107.68510	336.77582	423.15824	157.62986	313.69551	238.82125	156.34231	116.18680	254.11827	87.68047	126.26983	225.65466	114.12135	161.98103	278.20913	123.11116	83.88105	629.74441	53.49524	382.80214	602.51934	-6.52785	337.75558	522.51300	-44.22875	83.78022	492.54065	18.16854	97.15097	474.16285	-28.86593	122.50070	551.09204	5.06639	71.10532	595.36219	-84.41682	443.52413	425.77199	222.09140	441.21114	591.34499	-84.69015	233.92827	343.78540	219.97693	233.58624	
346	3.450	435.18903	36.45642	962.66015	444.04782	39.48306	770.05277	565.31920	57.49977	924.95424	506.58678	142.70671	619.75185	558.01944	-27.14689	627.83771	417.11910	61.60578	677.18968	436.48295	-6.19605	679.96075	506.94303	108.54297	335.68635	442.34302	157.64650	312.02185	252.30523	155.33349	120.96660	269.31482	86.80193	129.03882	241.39088	112.12220	166.20784	291.40349	123.57284	86.76704	635.26735	52.62122	380.31046	607.72777	-7.59291	335.87937	522.71684	-45.38410	83.30188	492.62018	16.85968	97.46343	475.07194	-30.50105	122.93365	550.78199	4.16189	70.66227	603.67981	-85.41760	441.90517	440.47863	221.05054	440.00983	594.94810	-85.55815	232.03201	359.98445	219.21064	235.79029	
347	3.460	445.10801	36.00859	962.00787	455.18018	39.85339	769.56262	575.51011	57.30552	925.03795	517.49505	141.20138	618.06966	568.92895	-28.44317	628.79258	427.93690	60.97090	676.81592	447.56067	-6.82051	681.04196	527.12525	109.55376	335.64690	461.98472	157.84297	311.18362	267.49940	154.28419	125.51449	286.33091	85.94809	131.60811	258.64332	110.02401	169.99245	306.60742	124.17216	89.76897	640.50891	51.01653	378.25763	612.48911	-9.24330	334.45292	522.88982	-46.54740	83.05733	492.73273	15.54042	98.05680	475.92608	-32.15492	123.57039	550.45053	3.22116	70.43035	611.49848	-86.98073	440.66093	455.43382	220.06547	439.55434	598.17148	-86.81733	230.36779	376.91342	218.50645	238.50257	
